#!OML:ASF H:\MichaelJackson\Top Level 1\Subject 1\Session 1\male.ASF
:FULLY-SPECIFIED
:DEGREES
576
root 17.5878 16.6385 -5.89767 11.9705 9.41716 6.19133
lowerback 3.3143 -0.996661 -6.52335
upperback 2.5984 -1.46405 -1.66028
thorax 0.944716 -0.80527 1.97631
lowerneck -9.57889 -0.720112 -1.12741
upperneck 6.9452 -0.894642 0.89819
head 4.00559 -0.429795 0.443829
rclavicle 1.43622e-014 -1.49089e-015
rhumerus -43.0886 -0.607721 -87.9441
rradius 41.9537
rwrist 5.9063
rhand -31.2109 -26.8916
rfingers 7.12502
rthumb -4.48676 -56.8241
lclavicle 1.43622e-014 -1.49089e-015
lhumerus 1.00777 -10.0759 65.1792
lradius 57.065
lwrist 3.87939
lhand -29.1707 -4.34486
lfingers 7.12502
lthumb -2.51655 25.62
rfemur -44.813 4.00707 11.1304
rtibia 33.8775
rfoot -9.83483 -1.21828
rtoes 2.40076
lfemur -17.2529 8.02571 -27.9318
ltibia 32.815
lfoot -27.6164 -0.0395495
ltoes 13.5989
577
root 17.6112 16.6287 -5.75854 11.8233 9.14776 6.15318
lowerback 3.20207 -1.0989 -6.46012
upperback 2.56169 -1.59204 -1.56518
thorax 0.980824 -0.869651 2.03937
lowerneck -9.60772 -0.610256 -1.13519
upperneck 7.08915 -0.735832 0.77872
head 4.06017 -0.357508 0.415709
rclavicle 2.85256e-014 -1.68967e-015
rhumerus -43.366 -0.504698 -87.9731
rradius 42.9096
rwrist 5.49414
rhand -30.9671 -26.4179
rfingers 7.12502
rthumb -4.25139 -56.3552
lclavicle 2.85256e-014 -1.68967e-015
lhumerus 0.927716 -12.1229 64.2646
lradius 55.3219
lwrist 1.15589
lhand -24.6159 -4.96053
lfingers 7.12502
lthumb 1.88258 25.0109
rfemur -44.5776 3.62121 11.6164
rtibia 34.1091
rfoot -9.84645 -1.32686
rtoes 4.29587
lfemur -16.4368 7.4819 -27.842
ltibia 32.6958
lfoot -27.8605 1.04837
ltoes 12.8272
578
root 17.6336 16.6194 -5.61962 11.6976 8.89505 6.06388
lowerback 3.10689 -1.20248 -6.35146
upperback 2.51148 -1.7233 -1.44737
thorax 0.993005 -0.934328 2.10084
lowerneck -9.6332 -0.504718 -1.16281
upperneck 7.21043 -0.580608 0.668878
head 4.10651 -0.287256 0.394164
rclavicle 1.88845e-015 -4.17448e-015
rhumerus -43.6336 -0.488292 -87.9579
rradius 43.8429
rwrist 5.21289
rhand -30.7132 -25.7677
rfingers 7.12502
rthumb -4.00615 -55.7097
lclavicle 1.88845e-015 -4.17448e-015
lhumerus 0.664335 -14.0687 63.5413
lradius 53.9992
lwrist -1.25291
lhand -19.4157 -5.40941
lfingers 7.12502
lthumb 6.90387 24.458
rfemur -44.3628 3.22452 12.1799
rtibia 34.5326
rfoot -9.75154 -1.35038
rtoes 6.35523
lfemur -15.723 6.86763 -27.723
ltibia 32.7018
lfoot -28.0776 2.23118
ltoes 11.9988
579
root 17.6549 16.611 -5.48096 11.5914 8.66546 5.91806
lowerback 3.02312 -1.30889 -6.19737
upperback 2.45202 -1.85913 -1.29849
thorax 0.989108 -1.00036 2.16921
lowerneck -9.64376 -0.404247 -1.21329
upperneck 7.29585 -0.428947 0.559995
head 4.13737 -0.219501 0.376791
rclavicle -9.46712e-015 2.39536e-014
rhumerus -43.8839 -0.568314 -87.8793
rradius 44.7468
rwrist 5.02767
rhand -30.4352 -24.9507
rfingers 7.12502
rthumb -3.73774 -54.8977
lclavicle -9.46712e-015 2.39536e-014
lhumerus 0.215877 -15.7809 63.0879
lradius 53.0506
lwrist -3.3602
lhand -13.6028 -5.61702
lfingers 7.12502
lthumb 12.512 23.9884
rfemur -44.1542 2.86727 12.7822
rtibia 35.0781
rfoot -9.59209 -1.3504
rtoes 8.27399
lfemur -15.1312 6.23728 -27.5685
ltibia 32.8686
lfoot -28.2674 3.44437
ltoes 11.1113
580
root 17.6755 16.6039 -5.34257 11.4944 8.45715 5.72259
lowerback 2.95738 -1.41862 -6.00254
upperback 2.3869 -2.00055 -1.11985
thorax 0.969311 -1.06841 2.24593
lowerneck -9.62819 -0.305078 -1.28994
upperneck 7.33855 -0.2757 0.452449
head 4.14786 -0.151697 0.364589
rclavicle -3.01531e-014 -9.26834e-015
rhumerus -44.1171 -0.735888 -87.737
rradius 45.5999
rwrist 4.92614
rhand -30.1686 -23.9718
rfingers 7.12502
rthumb -3.4803 -53.9231
lclavicle -3.01531e-014 -9.26834e-015
lhumerus -0.422658 -17.1067 62.9579
lradius 52.4221
lwrist -5.28859
lhand -7.07828 -5.44932
lfingers 7.12502
lthumb 18.7955 23.6626
rfemur -43.9319 2.56838 13.3924
rtibia 35.6756
rfoot -9.45706 -1.3635
rtoes 9.92757
lfemur -14.6691 5.64795 -27.3844
ltibia 33.2323
lfoot -28.4207 4.64281
ltoes 10.0726
581
root 17.6956 16.5984 -5.20457 11.4001 8.26741 5.46746
lowerback 2.91575 -1.53418 -5.75014
upperback 2.31498 -2.15082 -0.911905
thorax 0.928557 -1.13979 2.32148
lowerneck -9.57866 -0.202677 -1.39481
upperneck 7.33869 -0.114974 0.346853
head 4.13629 -0.0808506 0.358435
rclavicle 1.93846e-014 -2.76932e-014
rhumerus -44.3383 -0.976011 -87.5396
rradius 46.397
rwrist 4.86415
rhand -29.9224 -22.8859
rfingers 7.12502
rthumb -3.2425 -52.841
lclavicle 1.93846e-014 -2.76932e-014
lhumerus -1.2519 -17.9516 63.1745
lradius 52.0437
lwrist -7.01288
lhand 0.140252 -4.93249
lfingers 7.12502
lthumb 25.7247 23.3489
rfemur -43.6823 2.33525 14.0092
rtibia 36.2607
rfoot -9.34449 -1.4159
rtoes 10.9591
lfemur -14.3529 5.14338 -27.1577
ltibia 33.8304
lfoot -28.511 5.82348
ltoes 8.71586
582
root 17.7153 16.5951 -5.06676 11.2918 8.09506 5.16298
lowerback 2.89637 -1.65121 -5.46513
upperback 2.25015 -2.30359 -0.669676
thorax 0.882887 -1.21244 2.41453
lowerneck -9.48951 -0.098895 -1.53024
upperneck 7.28919 0.0511497 0.236821
head 4.09896 -0.00817985 0.356324
rclavicle 2.21024e-014 8.89561e-015
rhumerus -44.537 -1.27567 -87.2843
rradius 47.1338
rwrist 4.73674
rhand -29.7294 -21.7786
rfingers 7.12502
rthumb -3.05614 -51.7365
lclavicle 2.21024e-014 8.89561e-015
lhumerus -2.23597 -18.3016 63.7408
lradius 51.8355
lwrist -8.35654
lhand 7.62476 -3.98405
lfingers 7.12502
lthumb 32.8702 23.0435
rfemur -43.3805 2.13881 14.6312
rtibia 36.7835
rfoot -9.27476 -1.50121
rtoes 11.2983
lfemur -14.1813 4.76929 -26.8925
ltibia 34.698
lfoot -28.5106 6.92904
ltoes 7.02188
583
root 17.7344 16.5943 -4.92899 11.1586 7.92978 4.81132
lowerback 2.90784 -1.76809 -5.14429
upperback 2.19438 -2.45676 -0.402375
thorax 0.828796 -1.28515 2.51417
lowerneck -9.36261 0.00964437 -1.68707
upperneck 7.2011 0.225142 0.125878
head 4.04022 0.0681371 0.35785
rclavicle 2.01021e-014 2.64384e-014
rhumerus -44.712 -1.61889 -86.9948
rradius 47.8034
rwrist 4.45814
rhand -29.6017 -20.7787
rfingers 7.12502
rthumb -2.93277 -50.7382
lclavicle 2.01021e-014 2.64384e-014
lhumerus -3.34664 -18.1808 64.6044
lradius 51.7548
lwrist -9.19098
lhand 14.9464 -2.42819
lfingers 7.12502
lthumb 39.8012 22.8575
rfemur -43.0114 1.95518 15.2689
rtibia 37.2081
rfoot -9.27421 -1.60946
rtoes 11.2073
lfemur -14.1631 4.55839 -26.5861
ltibia 35.8697
lfoot -28.3822 7.94254
ltoes 4.92953
584
root 17.753 16.596 -4.79119 10.9978 7.76108 4.42715
lowerback 2.9466 -1.87934 -4.80536
upperback 2.15143 -2.6026 -0.118736
thorax 0.77193 -1.35443 2.62113
lowerneck -9.2047 0.122248 -1.85691
upperneck 7.08678 0.404421 0.016415
head 3.96594 0.147291 0.362049
rclavicle -2.48729e-014 7.65321e-015
rhumerus -44.8605 -1.99261 -86.6897
rradius 48.41
rwrist 3.93945
rhand -29.5547 -19.9905
rfingers 7.12502
rthumb -2.88744 -49.9507
lclavicle -2.48729e-014 7.65321e-015
lhumerus -4.53779 -17.6587 65.7049
lradius 51.7567
lwrist -9.39487
lhand 21.4201 -0.11825
lfingers 7.12502
lthumb 45.8556 23.0362
rfemur -42.5702 1.7518 15.9231
rtibia 37.519
rfoot -9.31305 -1.70271
rtoes 10.7301
lfemur -14.3156 4.5456 -26.2479
ltibia 37.3747
lfoot -28.077 8.81498
ltoes 2.4842
